Coordinates
version=1
nRows=17
nColumns=33
inDegrees=yes

Units are S.I. units (second, meters, Newtons, ...)
Angles are in degrees.

endheader
time	ground_thorax_rot_x	ground_thorax_rot_y	ground_thorax_rot_z	ground_thorax_tx	ground_thorax_ty	ground_thorax_tz	clav_prot_r	clav_elev_r	scapula_abduction_r	scapula_elevation_r	scapula_upward_rot_r	scapula_winging_r	shoulder_elv_r	plane_of_elev_r	axial_rot_r	elbow_flexion_r	pro_sup_r	wrist_flex_r	wrist_dev_r	clav_prot_l	clav_elev_l	scapula_abduction_l	scapula_elevation_l	scapula_upward_rot_l	scapula_winging_l	shoulder_elv_l	plane_of_elev_l	axial_rot_l	elbow_flexion_l	pro_sup_l	wrist_flex_l	wrist_dev_l
     12.39000000	    -90.00000000	     90.00000000	    -90.00000000	   -108.38208874	    848.10963390	    -39.88110399	     29.95038886	     34.40750718	     45.00000000	     45.00000000	     20.04841465	   2504.62243657	    470.02913939	     33.15732395	    -25.16794882	   1438.00430277	    151.63492761	     15.14867293	     13.92791530	    -45.00000000	     20.16766932	     36.32887040	    -16.36324857	     45.00000000	   3343.66881750	  -5287.26854471	     26.30600254	    175.53922729	   1789.78931770	     38.05407114	     12.77321445	    -22.17608448
     12.40000000	    -90.00000000	     90.00000000	    -90.00000000	   -107.68359856	    847.66457284	    -40.10649001	     30.00841186	     34.38091752	     45.00000000	     45.00000000	     20.06812159	   2504.49206970	    469.94070583	     33.12690995	    -25.46110074	   1438.01012206	    151.49277524	     15.28068611	     14.14993033	    -45.00000000	     20.31388850	     36.38396564	    -16.47453706	     45.00000000	   3343.92273488	  -5287.39109606	     26.45395728	    175.72841335	   1789.93259290	     38.09395990	     12.91643828	    -22.27885400
     12.41000000	    -90.00000000	     90.00000000	    -90.00000000	   -106.91902165	    847.27181804	    -40.34376132	     30.00021921	     34.42484949	     45.00000000	     45.00000000	     19.98505701	   2504.34277839	    469.98029552	     33.07299373	    -25.94279315	   1437.95146071	    151.32621714	     15.20937094	     14.12933193	    -45.00000000	     20.25870965	     36.39000427	    -16.43629704	     45.00000000	   3343.92453368	  -5287.25312261	     26.34838053	    176.07697911	   1789.94520718	     38.11863875	     12.92444402	    -22.37713747
     12.42000000	    -90.00000000	     90.00000000	    -90.00000000	   -106.08646830	    846.93626216	    -40.58494485	     30.02919806	     34.42244178	     45.00000000	     45.00000000	     19.91936461	   2504.26327598	    470.00727558	     32.96075445	    -26.38548834	   1437.91551917	    151.12805244	     15.19128316	     14.24150638	    -45.00000000	     20.21801274	     36.45046983	    -16.40285950	     45.00000000	   3343.94632009	  -5287.18708091	     26.28719775	    176.42959131	   1790.00741008	     38.15304275	     12.98260230	    -22.41482939
     12.43000000	    -90.00000000	     90.00000000	    -90.00000000	   -105.18383065	    846.65696256	    -40.82417614	     30.03555688	     34.45122135	     45.00000000	     45.00000000	     19.80480124	   2504.08879450	    470.02168701	     32.90145962	    -26.88818028	   1437.86463121	    150.89961918	     15.12605889	     14.27838643	    -45.00000000	     20.15487431	     36.47418976	    -16.36728935	     45.00000000	   3343.97837591	  -5287.08639457	     26.21736809	    176.84146853	   1790.02335492	     38.18538131	     13.03667982	    -22.48109255
     12.44000000	    -90.00000000	     90.00000000	    -90.00000000	   -104.21364658	    846.43355057	    -41.05736588	     30.05361082	     34.46062550	     45.00000000	     45.00000000	     19.70317009	   2503.98504436	    470.05453769	     32.77898268	    -27.37651661	   1437.82379317	    150.63854126	     15.07861505	     14.36166003	    -45.00000000	     20.06205612	     36.52874567	    -16.29433643	     45.00000000	   3343.97739053	  -5287.00645871	     26.13053811	    177.25804348	   1790.07171006	     38.22345584	     13.08656984	    -22.49803980
     12.45000000	    -90.00000000	     90.00000000	    -90.00000000	   -103.17379886	    846.26286462	    -41.28475929	     30.06392275	     34.48097302	     45.00000000	     45.00000000	     19.56881412	   2503.80213811	    470.07345917	     32.71862981	    -27.90685858	   1437.78565300	    150.35150503	     15.00555196	     14.40482901	    -45.00000000	     19.98111860	     36.56176595	    -16.19690086	     45.00000000	   3344.02629635	  -5286.88031877	     26.07884346	    177.70002119	   1790.02930368	     38.27772108	     13.17096592	    -22.52036385
     12.46000000	    -90.00000000	     90.00000000	    -90.00000000	   -102.06680080	    846.14134921	    -41.50740505	     30.07877270	     34.49824698	     45.00000000	     45.00000000	     19.46044380	   2503.70521798	    470.11842067	     32.57780435	    -28.42587563	   1437.72432468	    150.03622289	     14.94272664	     14.48634376	    -45.00000000	     19.88078772	     36.65693163	    -16.11103084	     45.00000000	   3343.92248303	  -5286.81881017	     25.91533855	    178.14362062	   1790.11459031	     38.31749726	     13.21552132	    -22.52887731
     12.47000000	    -90.00000000	     90.00000000	    -90.00000000	   -100.89147548	    846.06342995	    -41.72834237	     30.09088530	     34.50827849	     45.00000000	     45.00000000	     19.30629428	   2503.51310210	    470.13141448	     32.52743663	    -28.99897516	   1437.67243147	    149.70938037	     14.86694214	     14.53323210	    -45.00000000	     19.75801982	     36.67828898	    -16.03896357	     45.00000000	   3344.01350774	  -5286.74398577	     25.88222691	    178.61707676	   1790.12789247	     38.37468299	     13.30253161	    -22.53913414
     12.48000000	    -90.00000000	     90.00000000	    -90.00000000	    -99.65082952	    846.02270670	    -41.94956155	     30.10595878	     34.51976723	     45.00000000	     45.00000000	     19.14459140	   2503.37886023	    470.15877312	     32.39169164	    -29.56185454	   1437.62926366	    149.38160522	     14.79064811	     14.59742323	    -45.00000000	     19.67426594	     36.72752723	    -15.92888931	     45.00000000	   3343.97827077	  -5286.61760121	     25.76114581	    179.05958569	   1790.12878543	     38.44167445	     13.38050321	    -22.51954279
     12.49000000	    -90.00000000	     90.00000000	    -90.00000000	    -98.34846432	    846.01153362	    -42.17240690	     30.12262070	     34.52953138	     45.00000000	     45.00000000	     18.96843712	   2503.18941790	    470.17306390	     32.30255982	    -30.15536989	   1437.57167076	    149.05921059	     14.69690176	     14.65857388	    -45.00000000	     19.57047972	     36.76056303	    -15.82855585	     45.00000000	   3344.01863118	  -5286.50405603	     25.70770028	    179.53028173	   1790.11628068	     38.51747894	     13.47754440	    -22.50583804
     12.50000000	    -90.00000000	     90.00000000	    -90.00000000	    -96.98937351	    846.02137306	    -42.39677313	     30.13915230	     34.54432189	     45.00000000	     45.00000000	     18.77414624	   2503.08789253	    470.18069260	     32.17688765	    -30.74778441	   1437.51591557	    148.74146046	     14.60166490	     14.73207349	    -45.00000000	     19.48161691	     36.85922569	    -15.72203975	     45.00000000	   3343.88689884	  -5286.48413947	     25.52617437	    179.97451669	   1790.21796519	     38.58066179	     13.52858916	    -22.49900181
     12.51000000	    -90.00000000	     90.00000000	    -90.00000000	    -95.57854683	    846.04311638	    -42.62160733	     30.15935766	     34.53228947	     45.00000000	     45.00000000	     18.59052186	   2502.85372270	    470.19790692	     32.09706123	    -31.39580734	   1437.45045288	    148.45363919	     14.49371877	     14.79232515	    -45.00000000	     19.39971565	     36.82104501	    -15.65902014	     45.00000000	   3344.18570121	  -5286.31310424	     25.72817309	    179.99999979	   1790.23089338	     38.67639516	     13.67551359	    -22.52720309
     12.52000000	    -90.00000000	     90.00000000	    -90.00000000	    -94.11964344	    846.06747731	    -42.84486280	     30.17510796	     34.54751664	     45.00000000	     45.00000000	     18.41802890	   2502.73972085	    470.23872077	     31.93194397	    -32.00188708	   1437.41084658	    148.19475921	     14.37529693	     14.87311539	    -45.00000000	     19.44405546	     36.92925396	    -15.56601363	     45.00000000	   3343.92709313	  -5286.21474771	     25.46384732	    179.99999979	   1790.44972335	     38.77229489	     13.80899339	    -22.63621809
     12.53000000	    -90.00000000	     90.00000000	    -90.00000000	    -92.61516705	    846.08524356	    -43.06400206	     30.19255520	     34.54841173	     45.00000000	     45.00000000	     18.23596836	   2502.55824942	    470.26034258	     31.82776525	    -32.63373495	   1437.36666373	    147.96491475	     14.24041924	     14.94527376	    -45.00000000	     19.32543296	     36.98469616	    -15.57131768	     45.00000000	   3344.00002582	  -5286.19288345	     25.46808853	    179.99999979	   1790.61817149	     38.89595882	     13.87597352	    -22.67260126
     12.54000000	    -90.00000000	     90.00000000	    -90.00000000	    -91.06875049	    846.08791003	    -43.27568734	     30.20704763	     34.53578030	     45.00000000	     45.00000000	     18.02341682	   2502.38670009	    470.26462510	     31.72968353	    -33.28409930	   1437.31453722	    147.77561413	     14.10943375	     15.00852300	    -45.00000000	     19.31005743	     37.00888547	    -15.52856076	     45.00000000	   3344.00906943	  -5286.10892892	     25.40175662	    179.99999979	   1790.74183303	     39.04447489	     14.01178087	    -22.72676067
     12.55000000	    -90.00000000	     90.00000000	    -90.00000000	    -89.48020743	    846.06774859	    -43.47694643	     30.21944419	     34.53307324	     45.00000000	     45.00000000	     17.79124217	   2502.23634203	    470.24330283	     31.62682473	    -33.93100762	   1437.26480909	    147.63192944	     13.97262956	     15.07238270	    -45.00000000	     19.25943920	     37.02183123	    -15.49021958	     45.00000000	   3344.07256642	  -5286.03713534	     25.40705020	    179.99999979	   1790.88824682	     39.19550979	     14.11286750	    -22.77581452
